<svg width="24" height="24" viewBox="0 0 24 24" fill="none" xmlns="http://www.w3.org/2000/svg">
<path d="M19.2984 9.566H4.70235C4.40702 9.56662 4.11563 9.63384 3.84986 9.76265C3.5841 9.89146 3.35081 10.0786 3.16735 10.31C2.98512 10.5412 2.85776 10.8107 2.79488 11.0982C2.732 11.3858 2.73523 11.6839 2.80435 11.97L4.36935 18.378C4.59553 19.2038 5.08758 19.932 5.76935 20.45C6.45135 20.969 7.28635 21.25 8.14535 21.25H15.8534C16.7124 21.25 17.5474 20.969 18.2294 20.45C18.9111 19.932 19.4032 19.2038 19.6294 18.378L21.1944 11.971C21.2997 11.5391 21.2535 11.084 21.0634 10.6821C20.8734 10.2802 20.551 9.95568 20.1504 9.763C19.8842 9.63385 19.5922 9.5665 19.2964 9.566M8.08735 13.46V17.355M12.0004 13.46V17.355M15.9134 13.46V17.355M18.8484 9.566C18.848 8.67005 18.6706 7.78299 18.3264 6.95582C17.9821 6.12864 17.4778 5.37765 16.8424 4.746C15.5556 3.46687 13.8147 2.74924 12.0004 2.75C10.186 2.74924 8.44512 3.46687 7.15835 4.746C6.52312 5.37773 6.01897 6.12876 5.67489 6.95593C5.3308 7.7831 5.15356 8.67012 5.15335 9.566" stroke="black" stroke-width="1.5" stroke-linecap="round" stroke-linejoin="round"/>
</svg>
